<svg fill="none" height="20" viewBox="0 0 20 20" width="20" xmlns="http://www.w3.org/2000/svg">
    <g id="Group 11">
        <path d="M19.7999 10.2273C19.7999 9.51825 19.7363 8.83643 19.6181 8.18188H10.2V12.0546H15.5818C15.3454 13.3001 14.6363 14.3546 13.5727 15.0637V17.5819H16.8181C18.709 15.8364 19.7999 13.2728 19.7999 10.2273Z"
            fill="#4285F4"
            id="Vector" />
        <path d="M10.2 20.0001C12.9 20.0001 15.1636 19.1092 16.8181 17.5819L13.5727 15.0637C12.6818 15.6637 11.5454 16.0274 10.2 16.0274C7.59997 16.0274 5.39088 14.2728 4.59998 11.9092H1.27271V14.491C2.91816 17.7546 6.29088 20.0001 10.2 20.0001Z"
            fill="#34A853"
            id="Vector_2" />
        <path d="M4.59995 11.8999C4.39995 11.2999 4.28177 10.6635 4.28177 9.99988C4.28177 9.33624 4.39995 8.69988 4.59995 8.09988V5.51807H1.27268C0.59086 6.86352 0.199951 8.3817 0.199951 9.99988C0.199951 11.6181 0.59086 13.1362 1.27268 14.4817L3.86358 12.4635L4.59995 11.8999Z"
            fill="#FBBC05"
            id="Vector_3" />
        <path d="M10.2 3.98182C11.6727 3.98182 12.9818 4.49091 14.0272 5.47272L16.8909 2.60909C15.1545 0.990908 12.9 0 10.2 0C6.29088 0 2.91816 2.24545 1.27271 5.51818L4.59998 8.09999C5.39088 5.73636 7.59997 3.98182 10.2 3.98182Z"
            fill="#EA4335"
            id="Vector_4" />
    </g>
</svg>